{"title":"300 *2006* [BluRay][720p][ENG, POL]","uid":5848054,"size":8760270414,"categoryP":"video","categoryS":"hd___movies","magnet":"?xt=urn:btih:e8e7d8b1cf6ef97453d61bb311ff799df880d647&amp;dn=300+%2A2006%2A+%5BBluRay%5D%5B720p%5D%5BENG%2C+POL%5D&amp;tr=udp%3A%2F%2Ftracker.openbittorrent.com%3A80&amp;tr=udp%3A%2F%2Fopen.demonii.com%3A1337&amp;tr=udp%3A%2F%2Ftracker.coppersurfer.tk%3A6969&amp;tr=udp%3A%2F%2Fexodus.desync.com%3A6969","seeders":0,"leechers":0,"uploader":"albedo040","files":1,"time":1285274331,"description":"300 *2006* [BluRay][720p][ENG, POL]\n\nGeneral information:\nCountry: USA\nRelease: 9 December 2006 (Austin Butt-Numb-A-Thon) \nGenre: Action, Fantasy, War \nDirector: Zack Snyder\nScreenplay: Michael Gordon, Kurt Johnstad\nOriginal Music: Tyler Bates \nCinematography by: Larry Fong \nDuration: 1h 56mn\nLanguage: English, Polish \nNo Subtitles\nRating: 8.0/10 - 55156 votes \n\nCast:\nGerard Butler  ...  King Leonidas  \nLena Headey  ...  Queen Gorgo  \nDominic West  ...  Theron  \nDavid Wenham  ...  Dilios  \nVincent Regan  ...  Captain  \nMichael Fassbender  ...  Stelios  \nTom Wisdom  ...  Astinos  \nAndrew Pleavin  ...  Daxos  \nAndrew Tiernan  ...  Ephialtes  \nRodrigo Santoro  ...  Xerxes  \nTyler Neitzel  ...  Leonidas at 15 yrs  \nStephen McHattie  ...  Loyalist  \nGreg Kramer  ...  Ephor #1  \nAlex Ivanovici  ...  Ephor #2  \nKelly Craig  ...  Oracle Girl  \n\nPlot:\nKing Leonidas and a force of 300 men fight the Persians at Thermopylae in 480 B.C.\n\nSpecifications:\nGeneral\nFormat                           : Matroska\nOverall bit rate                 : 10.0 Mbps\n\nVideo\nFormat                           : AVC\nFormat/Info                      : Advanced Video Codec\nFormat profile                   : &lt;a class=&quot;__cf_email__&quot; href=&quot;/cdn-cgi/l/email-protection&quot; data-cfemail=&quot;6028090708202c554e51&quot;&gt;[email&amp;#160;protected]&lt;/a&gt;&lt;script data-cfhash='f9e31' type=&quot;text/javascript&quot;&gt;\n/* &lt;![CDATA[ */!function(){try{var t=&quot;currentScript&quot;in document?document.currentScript:function(){for(var t=document.getElementsByTagName(&quot;script&quot;),e=t.length;e--;)if(t[e].getAttribute(&quot;data-cfhash&quot;))return t[e]}();if(t&amp;&amp;t.previousSibling){var e,r,n,i,c=t.previousSibling,a=c.getAttribute(&quot;data-cfemail&quot;);if(a){for(e=&quot;&quot;,r=parseInt(a.substr(0,2),16),n=2;a.length-n;n+=2)i=parseInt(a.substr(n,2),16)^r,e+=String.fromCharCode(i);e=document.createTextNode(e),c.parentNode.replaceChild(e,c)}t.parentNode.removeChild(t);}}catch(u){}}()/* ]]&gt; */&lt;/script&gt;\nFormat settings, CABAC           : Yes\nFormat settings, ReFrames        : 9 frames\nMuxing mode                      : Container profile=&lt;a class=&quot;__cf_email__&quot; href=&quot;/cdn-cgi/l/email-protection&quot; data-cfemail=&quot;df8ab1b4b1b0a8b19feaf1ee&quot;&gt;[email&amp;#160;protected]&lt;/a&gt;&lt;script data-cfhash='f9e31' type=&quot;text/javascript&quot;&gt;\n/* &lt;![CDATA[ */!function(){try{var t=&quot;currentScript&quot;in document?document.currentScript:function(){for(var t=document.getElementsByTagName(&quot;script&quot;),e=t.length;e--;)if(t[e].getAttribute(&quot;data-cfhash&quot;))return t[e]}();if(t&amp;&amp;t.previousSibling){var e,r,n,i,c=t.previousSibling,a=c.getAttribute(&quot;data-cfemail&quot;);if(a){for(e=&quot;&quot;,r=parseInt(a.substr(0,2),16),n=2;a.length-n;n+=2)i=parseInt(a.substr(n,2),16)^r,e+=String.fromCharCode(i);e=document.createTextNode(e),c.parentNode.replaceChild(e,c)}t.parentNode.removeChild(t);}}catch(u){}}()/* ]]&gt; */&lt;/script&gt;\nCodec ID                         : V_MPEG4/ISO/AVC\nDuration                         : 1h 56mn\nBit rate                         : 8 130 Kbps\nWidth                            : 1 280 pixels\nHeight                           : 536 pixels\nDisplay aspect ratio             : 2.35:1\nFrame rate                       : 23.976 fps\n\nAudio 1\nFormat                           : DTS\nFormat/Info                      : Digital Theater Systems\nCodec ID                         : A_DTS\nBit rate mode                    : Constant\nBit rate                         : 1 510 Kbps\nChannel(s)                       : 6 channels\nChannel positions                : Front: L C R, Side: L R, LFE\nSampling rate                    : 48.0 KHz\nBit depth                        : 24 bits\nStream size                      : 1.23 GiB (15%)\nTitle                            : English\n\nAudio 2\nFormat                           : AC-3\nFormat/Info                      : Audio Coding 3\nMode extension                   : CM (complete main)\nCodec ID                         : A_AC3\nBit rate mode                    : Constant\nBit rate                         : 384 Kbps\nChannel(s)                       : 6 channels\nChannel positions                : Front: L C R, Side: L R, LFE\nSampling rate                    : 48.0 KHz\nBit depth                        : 16 bits\nStream size                      : 320 MiB (4%)\nTitle                            : Polish\n","torrent":{"xt":"urn:btih:e8e7d8b1cf6ef97453d61bb311ff799df880d647","amp;dn":"300+%2A2006%2A+%5BBluRay%5D%5B720p%5D%5BENG%2C+POL%5D","amp;tr":["udp%3A%2F%2Ftracker.openbittorrent.com%3A80","udp%3A%2F%2Fopen.demonii.com%3A1337","udp%3A%2F%2Ftracker.coppersurfer.tk%3A6969","udp%3A%2F%2Fexodus.desync.com%3A6969"],"infoHash":"e8e7d8b1cf6ef97453d61bb311ff799df880d647","infoHashBuffer":{"type":"Buffer","data":[232,231,216,177,207,110,249,116,83,214,27,179,17,255,121,157,248,128,214,71]},"announce":[],"urlList":[]}}